<?xml version="1.0" encoding="UTF-8"?>
<svg xmlns="http://www.w3.org/2000/svg" xmlns:xlink="http://www.w3.org/1999/xlink" width="168px" height="43px" viewBox="0 -5 190 53" version="1.1">
<g id="surface1">
<path style=" stroke:none;fill-rule:nonzero;fill:rgb(100%,100%,100%);fill-opacity:1;" d="M 19.640625 27.945312 C 20.820312 29.300781 21.449219 31.050781 21.402344 32.847656 C 21.394531 33.816406 21.234375 34.777344 20.921875 35.695312 C 20.59375 36.675781 20.117188 37.597656 19.511719 38.4375 C 18.855469 39.339844 17.988281 40.066406 16.984375 40.554688 C 15.859375 41.105469 14.625 41.382812 13.375 41.363281 C 11.476562 41.363281 10.070312 40.8125 9.148438 39.714844 L 8.007812 46.371094 L 2.882812 46.371094 L 6.40625 26.269531 L 11.117188 26.269531 L 10.878906 27.679688 C 11.878906 26.503906 13.257812 25.917969 15.011719 25.917969 C 16.78125 25.863281 18.480469 26.605469 19.640625 27.945312 Z M 15.414062 31.332031 C 14.882812 30.796875 14.15625 30.511719 13.40625 30.539062 C 12.5625 30.515625 11.75 30.847656 11.160156 31.449219 C 10.5625 32.0625 10.226562 32.886719 10.230469 33.746094 C 10.179688 34.539062 10.457031 35.320312 10.996094 35.90625 C 11.519531 36.460938 12.253906 36.769531 13.015625 36.746094 C 13.859375 36.757812 14.667969 36.410156 15.234375 35.785156 C 15.832031 35.144531 16.164062 34.292969 16.160156 33.414062 C 16.210938 32.644531 15.933594 31.890625 15.402344 31.332031 Z M 15.414062 31.332031 "/>
<path style=" stroke:none;fill-rule:nonzero;fill:rgb(100%,100%,100%);fill-opacity:1;" d="M 26.808594 40.96875 L 21.65625 40.96875 L 24.230469 26.28125 L 29.375 26.28125 Z M 30.078125 18.5 C 30.683594 19.0625 31.019531 19.851562 31.003906 20.675781 C 31.015625 21.488281 30.679688 22.269531 30.078125 22.816406 C 28.816406 23.984375 26.867188 23.984375 25.601562 22.816406 C 25.003906 22.261719 24.671875 21.476562 24.691406 20.660156 C 24.671875 19.835938 25.003906 19.046875 25.601562 18.484375 C 26.199219 17.914062 27 17.609375 27.824219 17.632812 C 28.660156 17.609375 29.472656 17.921875 30.078125 18.5 Z M 30.078125 18.5 "/>
<path style=" stroke:none;fill-rule:nonzero;fill:rgb(100%,100%,100%);fill-opacity:1;" d="M 43.992188 27.332031 C 44.96875 28.308594 45.488281 29.652344 45.429688 31.035156 C 45.417969 31.609375 45.359375 32.179688 45.25 32.746094 L 43.816406 40.96875 L 38.664062 40.96875 L 40.011719 33.234375 C 40.082031 32.910156 40.121094 32.578125 40.132812 32.246094 C 40.160156 31.714844 39.949219 31.199219 39.5625 30.835938 C 39.15625 30.488281 38.632812 30.308594 38.097656 30.328125 C 36.816406 30.328125 36.058594 31.007812 35.820312 32.367188 L 34.324219 40.96875 L 29.175781 40.96875 L 31.75 26.28125 L 36.449219 26.28125 L 36.238281 27.507812 C 37.339844 26.46875 38.800781 25.898438 40.3125 25.917969 C 41.679688 25.867188 43.007812 26.378906 43.992188 27.332031 Z M 43.992188 27.332031 "/>
<path style=" stroke:none;fill-rule:nonzero;fill:rgb(100%,100%,100%);fill-opacity:1;" d="M 62.484375 23.777344 C 64.34375 25.460938 65.375 27.878906 65.300781 30.390625 C 65.300781 31.65625 65.066406 32.910156 64.613281 34.09375 C 64.136719 35.332031 63.449219 36.476562 62.578125 37.476562 C 61.578125 38.601562 60.328125 39.46875 58.925781 40.011719 C 57.246094 40.679688 55.449219 41.003906 53.644531 40.96875 L 45.878906 40.96875 L 49.355469 21.183594 L 55.34375 21.183594 C 58.226562 21.183594 60.605469 22.046875 62.484375 23.777344 Z M 58.339844 34.765625 C 59.476562 33.746094 60.046875 32.367188 60.042969 30.628906 C 60.042969 29.089844 59.578125 27.914062 58.652344 27.101562 C 57.722656 26.292969 56.492188 25.882812 54.953125 25.871094 L 53.695312 25.871094 L 51.839844 36.363281 L 53.996094 36.335938 C 55.585938 36.371094 57.136719 35.8125 58.339844 34.765625 Z M 58.339844 34.765625 "/>
<path style=" stroke:none;fill-rule:nonzero;fill:rgb(100%,100%,100%);fill-opacity:1;" d="M 80.375 35.394531 L 70.9375 35.394531 C 71.40625 36.515625 72.476562 37.074219 74.144531 37.074219 C 75.554688 37.046875 76.9375 36.65625 78.15625 35.933594 L 79.800781 39.351562 C 78.019531 40.632812 75.882812 41.324219 73.691406 41.328125 C 71.34375 41.328125 69.433594 40.648438 67.957031 39.289062 C 66.507812 37.964844 65.703125 36.074219 65.761719 34.105469 C 65.722656 31.910156 66.621094 29.800781 68.226562 28.304688 C 69.820312 26.734375 71.976562 25.875 74.214844 25.921875 C 76.25 25.921875 77.886719 26.546875 79.125 27.792969 C 80.34375 29 81.015625 30.660156 80.980469 32.378906 C 80.984375 33.414062 80.777344 34.441406 80.375 35.394531 Z M 72.03125 30.492188 C 71.511719 30.902344 71.121094 31.460938 70.914062 32.09375 L 76.121094 32.09375 C 76.128906 31.480469 75.875 30.894531 75.417969 30.488281 C 74.964844 30.097656 74.382812 29.890625 73.785156 29.90625 C 73.152344 29.898438 72.535156 30.105469 72.03125 30.492188 Z M 72.03125 30.492188 "/>
<path style=" stroke:none;fill-rule:nonzero;fill:rgb(100%,100%,100%);fill-opacity:1;" d="M 86.269531 40.96875 L 81.121094 40.96875 L 85.074219 18.488281 L 90.222656 18.488281 Z M 86.269531 40.96875 "/>
<path style=" stroke:none;fill-rule:nonzero;fill:rgb(100%,100%,100%);fill-opacity:1;" d="M 93.785156 40.96875 L 88.636719 40.96875 L 91.210938 26.28125 L 96.359375 26.28125 Z M 97.046875 18.5 C 97.65625 19.058594 97.992188 19.851562 97.976562 20.675781 C 97.988281 21.492188 97.648438 22.269531 97.046875 22.816406 C 95.785156 23.984375 93.835938 23.984375 92.570312 22.816406 C 91.976562 22.261719 91.644531 21.476562 91.660156 20.660156 C 91.644531 19.835938 91.976562 19.046875 92.570312 18.484375 C 93.171875 17.910156 93.976562 17.605469 94.804688 17.632812 C 95.636719 17.613281 96.445312 17.925781 97.046875 18.5 Z M 97.046875 18.5 "/>
<path style=" stroke:none;fill-rule:nonzero;fill:rgb(100%,100%,100%);fill-opacity:1;" d="M 113.878906 26.28125 L 103.574219 41.328125 L 101.933594 41.328125 L 96.898438 26.28125 L 102.183594 26.28125 L 104.046875 32.726562 L 108.148438 26.28125 Z M 113.878906 26.28125 "/>
<path style=" stroke:none;fill-rule:nonzero;fill:rgb(100%,100%,100%);fill-opacity:1;" d="M 126.867188 35.394531 L 117.429688 35.394531 C 117.902344 36.515625 118.96875 37.074219 120.632812 37.074219 C 122.046875 37.046875 123.429688 36.65625 124.644531 35.933594 L 126.292969 39.351562 C 124.515625 40.632812 122.378906 41.324219 120.1875 41.328125 C 117.835938 41.328125 115.925781 40.648438 114.453125 39.289062 C 112.996094 37.96875 112.191406 36.074219 112.25 34.105469 C 112.214844 31.910156 113.109375 29.800781 114.714844 28.304688 C 116.308594 26.734375 118.46875 25.875 120.703125 25.921875 C 122.738281 25.921875 124.375 26.546875 125.613281 27.792969 C 126.835938 29 127.511719 30.660156 127.472656 32.378906 C 127.480469 33.414062 127.273438 34.441406 126.867188 35.394531 Z M 118.53125 30.492188 C 118.007812 30.902344 117.617188 31.460938 117.40625 32.09375 L 122.617188 32.09375 C 122.625 31.480469 122.367188 30.894531 121.910156 30.488281 C 121.457031 30.097656 120.875 29.890625 120.277344 29.90625 C 119.644531 29.898438 119.03125 30.105469 118.53125 30.492188 Z M 118.53125 30.492188 "/>
<path style=" stroke:none;fill-rule:nonzero;fill:rgb(100%,100%,100%);fill-opacity:1;" d="M 140.101562 26.492188 L 139.292969 31.035156 C 138.710938 30.953125 138.121094 30.902344 137.53125 30.886719 C 136.664062 30.832031 135.804688 31.105469 135.125 31.648438 C 134.554688 32.160156 134.167969 32.996094 133.972656 34.152344 L 132.773438 40.988281 L 127.617188 40.988281 L 130.191406 26.296875 L 134.890625 26.296875 L 134.652344 27.738281 C 135.535156 26.683594 136.839844 26.082031 138.210938 26.097656 C 138.863281 26.089844 139.507812 26.226562 140.101562 26.492188 Z M 140.101562 26.492188 "/>
<path style=" stroke:none;fill-rule:nonzero;fill:rgb(100%,100%,100%);fill-opacity:1;" d="M 167.457031 15.867188 C 167.457031 18.492188 165.332031 20.625 162.707031 20.625 C 160.082031 20.625 157.953125 18.492188 157.953125 15.867188 C 157.953125 13.238281 160.082031 11.109375 162.707031 11.109375 C 165.332031 11.109375 167.457031 13.238281 167.457031 15.867188 Z M 167.457031 15.867188 "/>
<path style=" stroke:none;fill-rule:nonzero;fill:rgb(100%,100%,100%);fill-opacity:1;" d="M 162.707031 0.722656 C 162.707031 0.722656 147.539062 0.722656 147.539062 17.007812 C 147.539062 33.296875 160.570312 46.484375 162.707031 46.484375 C 164.839844 46.484375 177.875 33.289062 177.875 17.007812 C 177.875 0.730469 162.707031 0.722656 162.707031 0.722656 Z M 162.707031 27.671875 C 156.191406 27.675781 150.910156 22.390625 150.90625 15.871094 C 150.90625 9.347656 156.183594 4.058594 162.699219 4.058594 C 169.214844 4.058594 174.492188 9.347656 174.492188 15.871094 C 174.488281 22.386719 169.214844 27.671875 162.707031 27.671875 Z M 162.707031 27.671875 "/>
<path style=" stroke:none;fill-rule:nonzero;fill:rgb(100%,100%,100%);fill-opacity:1;" d="M 139.972656 33.445312 C 140.09375 33.4375 140.214844 33.457031 140.324219 33.503906 C 140.421875 33.539062 140.507812 33.597656 140.582031 33.667969 C 140.652344 33.738281 140.710938 33.820312 140.75 33.914062 C 140.832031 34.144531 140.816406 34.402344 140.699219 34.617188 C 140.617188 34.75 140.492188 34.847656 140.347656 34.894531 C 140.414062 34.910156 140.480469 34.945312 140.535156 34.988281 C 140.582031 35.03125 140.621094 35.082031 140.652344 35.140625 C 140.683594 35.199219 140.707031 35.265625 140.71875 35.332031 C 140.734375 35.402344 140.746094 35.476562 140.753906 35.546875 C 140.753906 35.585938 140.753906 35.640625 140.753906 35.699219 C 140.753906 35.761719 140.753906 35.824219 140.753906 35.882812 C 140.757812 35.945312 140.769531 36.003906 140.785156 36.0625 C 140.796875 36.113281 140.816406 36.160156 140.847656 36.203125 L 140.234375 36.203125 C 140.199219 36.101562 140.179688 35.996094 140.171875 35.886719 C 140.171875 35.765625 140.171875 35.648438 140.136719 35.535156 C 140.128906 35.417969 140.082031 35.304688 140.003906 35.214844 C 139.914062 35.136719 139.792969 35.101562 139.675781 35.113281 L 139.09375 35.113281 L 139.09375 36.203125 L 138.480469 36.203125 L 138.480469 33.414062 Z M 139.753906 34.703125 C 139.867188 34.710938 139.980469 34.679688 140.074219 34.609375 C 140.148438 34.527344 140.1875 34.417969 140.179688 34.304688 C 140.191406 34.195312 140.152344 34.085938 140.074219 34.011719 C 139.980469 33.941406 139.867188 33.910156 139.753906 33.917969 L 139.085938 33.917969 L 139.085938 34.703125 Z M 139.753906 34.703125 "/>
<path style=" stroke:none;fill-rule:nonzero;fill:rgb(100%,100%,100%);fill-opacity:1;" d="M 139.601562 37.292969 C 138.273438 37.292969 137.199219 36.21875 137.199219 34.886719 C 137.199219 33.558594 138.277344 32.484375 139.601562 32.484375 C 140.929688 32.484375 142.003906 33.5625 142.003906 34.894531 C 142 36.21875 140.925781 37.292969 139.601562 37.292969 Z M 139.601562 32.863281 C 138.480469 32.863281 137.570312 33.769531 137.570312 34.894531 C 137.570312 36.015625 138.480469 36.925781 139.601562 36.925781 C 140.722656 36.925781 141.628906 36.015625 141.628906 34.894531 C 141.628906 33.773438 140.71875 32.863281 139.601562 32.863281 Z M 139.601562 32.863281 "/>
</g>
</svg>
